<svg xmlns="http://www.w3.org/2000/svg" xmlns:xlink="http://www.w3.org/1999/xlink" version="1.1" x="0px" y="0px" viewBox="0 0 64 80" enable-background="new 0 0 64 64" xml:space="preserve"><g><g><g><g><path d="M40,60h-3c-1.654,0-3-1.346-3-3V35c0-1.654,1.346-3,3-3h11v2H37c-0.552,0-1,0.448-1,1v22c0,0.552,0.448,1,1,1h3V60z"/><rect x="42" y="58" width="2" height="2"/><path d="M59,60H46.001v-2H59c0.552,0,1-0.448,1-1V35c0-0.552-0.448-1-1-1h-5v-2h5c1.654,0,3,1.346,3,3v22      C62,58.654,60.654,60,59,60z"/><rect x="50" y="32" width="2" height="2"/></g><path d="M54,43c-1.654,0-3-1.346-3-3s1.346-3,3-3s3,1.346,3,3S55.654,43,54,43z M54,39c-0.552,0-1,0.448-1,1s0.448,1,1,1     s1-0.448,1-1S54.552,39,54,39z"/><path d="M42,55c-1.654,0-3-1.346-3-3s1.346-3,3-3s3,1.346,3,3S43.654,55,42,55z M42,51c-0.552,0-1,0.448-1,1s0.448,1,1,1     s1-0.448,1-1S42.552,51,42,51z"/><path d="M48,49c-1.654,0-3-1.346-3-3s1.346-3,3-3s3,1.346,3,3S49.654,49,48,49z M48,45c-0.552,0-1,0.448-1,1s0.448,1,1,1     s1-0.448,1-1S48.552,45,48,45z"/></g><g><g><path d="M46,18h-2V7c0-0.552-0.448-1-1-1H21c-0.552,0-1,0.448-1,1v3h-2V7c0-1.654,1.346-3,3-3h22c1.654,0,3,1.346,3,3V18z"/><rect x="18" y="12" width="2" height="2"/><path d="M43,32H21c-1.654,0-3-1.346-3-3V16.001h2V29c0,0.552,0.448,1,1,1h22c0.552,0,1-0.448,1-1v-5h2v5      C46,30.654,44.654,32,43,32z"/><rect x="44" y="20" width="2" height="2"/></g><path d="M32,22c-2.206,0-4-1.794-4-4s1.794-4,4-4s4,1.794,4,4S34.206,22,32,22z M32,16c-1.103,0-2,0.897-2,2s0.897,2,2,2     s2-0.897,2-2S33.103,16,32,16z"/></g><g><g><path d="M8,60H5c-1.654,0-3-1.346-3-3V35c0-1.654,1.346-3,3-3h11v2H5c-0.552,0-1,0.448-1,1v22c0,0.552,0.448,1,1,1h3V60z"/><rect x="10" y="58" width="2" height="2"/><path d="M27,60H14.001v-2H27c0.552,0,1-0.448,1-1V35c0-0.552-0.448-1-1-1h-5v-2h5c1.654,0,3,1.346,3,3v22      C30,58.654,28.654,60,27,60z"/><rect x="18" y="32" width="2" height="2"/></g><path d="M10,43c-1.654,0-3-1.346-3-3s1.346-3,3-3s3,1.346,3,3S11.654,43,10,43z M10,39c-0.552,0-1,0.448-1,1s0.448,1,1,1     s1-0.448,1-1S10.552,39,10,39z"/><path d="M22,43c-1.654,0-3-1.346-3-3s1.346-3,3-3s3,1.346,3,3S23.654,43,22,43z M22,39c-0.552,0-1,0.448-1,1s0.448,1,1,1     s1-0.448,1-1S22.552,39,22,39z"/><path d="M16,49c-1.654,0-3-1.346-3-3s1.346-3,3-3s3,1.346,3,3S17.654,49,16,49z M16,45c-0.552,0-1,0.448-1,1s0.448,1,1,1     s1-0.448,1-1S16.552,45,16,45z"/><path d="M10,55c-1.654,0-3-1.346-3-3s1.346-3,3-3s3,1.346,3,3S11.654,55,10,55z M10,51c-0.552,0-1,0.448-1,1s0.448,1,1,1     s1-0.448,1-1S10.552,51,10,51z"/><path d="M22,55c-1.654,0-3-1.346-3-3s1.346-3,3-3s3,1.346,3,3S23.654,55,22,55z M22,51c-0.552,0-1,0.448-1,1s0.448,1,1,1     s1-0.448,1-1S22.552,51,22,51z"/></g></g></g></svg>